<svg xmlns="http://www.w3.org/2000/svg">
<symbol viewBox="0 0 32 32" id="sewing-machine">
  <path d="M6 10.5c-.2763672 0-.5.2236328-.5.5v2c0 .2763672.2236328.5.5.5h2c.2763672 0 .5-.2236328.5-.5v-2c0-.2763672-.2236328-.5-.5-.5h-2zm1.5 2h-1v-1h1v1zM24 15.5c-1.378418 0-2.5 1.121582-2.5 2.5 0 1.3789062 1.121582 2.5 2.5 2.5s2.5-1.1210938 2.5-2.5c0-1.378418-1.121582-2.5-2.5-2.5zm0 4c-.8271484 0-1.5-.6728516-1.5-1.5s.6728516-1.5 1.5-1.5 1.5.6728516 1.5 1.5-.6728516 1.5-1.5 1.5zM24 9.5c-1.378418 0-2.5 1.121582-2.5 2.5s1.121582 2.5 2.5 2.5 2.5-1.121582 2.5-2.5-1.121582-2.5-2.5-2.5zm0 4c-.8271484 0-1.5-.6728516-1.5-1.5s.6728516-1.5 1.5-1.5 1.5.6728516 1.5 1.5-.6728516 1.5-1.5 1.5z"></path>
  <path d="m30,11.5h-1.5v-2.5c0-.8271484-.6728516-1.5-1.5-1.5h-4.5V2.5h.5c.2763672,0,.5-.2236328.5-.5s-.2236328-.5-.5-.5h-6c-.2763672,0-.5.2236328-.5.5s.2236328.5.5.5h.5v5h-8v-1.5c0-.2763672-.2236328-.5-.5-.5h-4c-.2763672,0-.5.2236328-.5.5v1.5h-.5c-.8271484,0-1.5.6728516-1.5,1.5v8.5h-.5c-.2763672,0-.5.2236328-.5.5s.2236328.5.5.5h.5v1.5c0,.2763672.2236328.5.5.5h1.5v5.5c0,.2763672.2236328.5.5.5s.5-.2236328.5-.5v-5.5h2.5c.1328125,0,.2597656-.0527344.3535156-.1464844l1.8535156-1.8535156h5.7929688c.8271484,0,1.5.6728516,1.5,1.5v7.5H3c-.2763672,0-.5.2236328-.5.5v2c0,.2763672.2236328.5.5.5h26c.2763672,0,.5-.2236328.5-.5v-2c0-.2763672-.2236328-.5-.5-.5h-.5v-1.5c0-.2763672-.2236328-.5-.5-.5s-.5.2236328-.5.5v1.5h-7v-7.5c0-2.4814453-2.0185547-4.5-4.5-4.5H3.5v-6.5c0-.2758789.2241211-.5.5-.5h23c.2758789,0,.5.2241211.5.5v13c0,.2763672.2236328.5.5.5s.5-.2236328.5-.5v-3.5h1.5c.2763672,0,.5-.2236328.5-.5v-6c0-.2763672-.2236328-.5-.5-.5Zm-2,17h.5v1H3.5v-1h24.5Zm-12-12c1.9296875,0,3.5,1.5703125,3.5,3.5v7.5h-1v-7.5c0-1.3789062-1.121582-2.5-2.5-2.5h-6c-.1328125,0-.2597656.0527344-.3535156.1464844l-1.8535156,1.8535156H3.5v-3h12.5Zm-7.5-9h-3v-1h3v1Zm13,0h-3v-.6098633l3-.75v1.3598633Zm0-2.3901367l-3,.75v-.9697266l3-.75v.9697266Zm0-2l-3,.75v-1.3598633h3v.6098633Zm8,14.3901367h-1v-5h1v5Z"></path>
  <circle cx="24" cy="12" r=".5"></circle>
  <circle cx="24" cy="18" r=".5"></circle>
  <circle cx="28" cy="24" r=".5"></circle>
</symbol>
</svg>
